<?xml version="1.0" encoding="utf-8"?>
<!-- Generator: Adobe Illustrator 26.0.3, SVG Export Plug-In . SVG Version: 6.00 Build 0)  -->
<svg version="1.1" id="Layer_1" xmlns="http://www.w3.org/2000/svg" xmlns:xlink="http://www.w3.org/1999/xlink" x="0px" y="0px"
	 viewBox="0 0 16 16" style="enable-background:new 0 0 16 16;" xml:space="preserve">
<g>
	<path d="M10.9,5.5C11,5.6,11,5.8,11,6c0,1.7-1.3,3-3,3C7.8,9,7.6,9,7.5,8.9l-3,3C6.1,14.2,8,16,8,16s6-5.7,6-10c0-1-0.3-2-0.7-2.9
		L10.9,5.5z"/>
	<path d="M5.8,8C5.3,7.5,5,6.8,5,6c0-1.7,1.3-3,3-3c0.8,0,1.5,0.3,2,0.8l2.1-2.1C11.1,0.6,9.6,0,8,0C4.7,0,2,2.7,2,6
		c0,1.4,0.6,2.9,1.5,4.4L5.8,8z"/>
	<rect x="0.2" y="6.4" transform="matrix(0.7071 -0.7071 0.7071 0.7071 -2.3945 7.8204)" width="16" height="0.7"/>
</g>
</svg>
