<?xml version="1.0" encoding="utf-8"?>
<!-- Generator: Adobe Illustrator 26.0.3, SVG Export Plug-In . SVG Version: 6.00 Build 0)  -->
<svg version="1.1" id="Layer_1" xmlns="http://www.w3.org/2000/svg" xmlns:xlink="http://www.w3.org/1999/xlink" x="0px" y="0px"
	 viewBox="0 0 512 512" style="enable-background:new 0 0 512 512;" xml:space="preserve">
<style type="text/css">
	.st0{fill:#FBB03B;}
	.st1{fill:#009245;}
	.st2{fill:#4D4D4D;}
</style>
<path class="st0" d="M69,310l83.96,6.79l61.64,23.95l15.79,5.64L233,203c0,0-15-23-43-17s-79,43-80,45S69,310,69,310z"/>
<g>
	<path class="st1" d="M260.38,362.85c-11.81-6.45-22.98-12.33-33.86-18.71c-1.7-1-2.68-4.2-2.95-6.5
		c-2.9-25.1-4.77-50.36-8.66-75.31c-2.23-14.33-7.41-28.22-11.71-42.18c-1.33-4.34-4.11-8.23-6.54-12.93
		c-1.11,1.36-1.78,2.02-2.26,2.8c-18.1,28.93-29.8,60.48-38.04,93.41c-1.78,7.12,1.36,11.22,8.43,14.12
		c14.43,5.91,28.7,12.23,42.97,18.54c2.49,1.1,4.64,2.95,6.83,4.66c-54.74-23.48-112.9-27.14-172.1-30
		c4.64-6.97,8.8-13.51,13.24-19.86c26.23-37.53,55.42-72.44,91.23-101.33c22.06-17.79,45.85-32.55,73.81-39.33
		c5.63-1.37,11.39-2.25,16.96-4.22c-7.75,1.36-15.61,2.27-23.22,4.16c-33.25,8.25-61.36,25.98-86.97,48.08
		c-28.69,24.76-52.34,53.91-73.37,85.28c-1.01,1.51-2.07,3-3.45,4.98c0-0.99-0.16-1.5,0.02-1.8c26.54-42.72,57.4-81.69,98.21-111.87
		c22.61-16.72,47.33-28.95,75.24-34.15c29.58-5.51,57.21-0.1,83.3,14.41c27.79,15.46,50.24,37.1,70.34,61.33
		c30.25,36.47,54.26,76.85,74.27,119.69c0.4,0.85,0.66,1.77,1.03,2.79c-68.49-37.87-131.06-32.02-187.98,24.38
		c-2.17-60.61-4.31-120.39-6.45-180.16c-0.27,0-0.53,0.01-0.8,0.01C258.73,242.99,259.56,302.82,260.38,362.85z M78.63,308.44
		c19.57,0.98,38.34,1.87,57.1,2.86c11,0.58,13.58-1.25,16.49-12.03c8.82-32.61,20.77-63.89,39.85-92.05
		c1.54-2.28,1.42-3.65-0.6-5.43c-6.57-5.79-13.74-6.91-21.75-3.38c-14.34,6.31-25.71,16.49-36.11,27.84
		c-21.07,22.98-37.33,49.27-52.14,76.54C80.54,304.5,79.71,306.28,78.63,308.44z"/>
	<path class="st1" d="M270.92,371.23c21.75-22.48,47.86-36.5,78.45-41.64c35.6-5.98,69.73-0.27,102.73,14.61
		C391.7,353.21,331.31,362.22,270.92,371.23z"/>
	<path class="st1" d="M251.65,366.79c-65.19-29.37-132.76-48.78-204.86-49.2C120.06,313.1,188.89,327.26,251.65,366.79z"/>
</g>
</svg>
