<?xml version="1.0" encoding="utf-8"?>
<!-- Generator: Adobe Illustrator 26.0.3, SVG Export Plug-In . SVG Version: 6.00 Build 0)  -->
<svg version="1.1" id="Layer_1" xmlns="http://www.w3.org/2000/svg" xmlns:xlink="http://www.w3.org/1999/xlink" x="0px" y="0px"
	 viewBox="0 0 1415 512" style="enable-background:new 0 0 1415 512;" xml:space="preserve">
<style type="text/css">
	.st0{fill:#006837;}
</style>
<path d="M365.77,387.41l45.11-74.34c4.32-7.11,14.54-7.38,19.22-0.5l50.95,74.84h83.08l-96.58-151.06
	c-3.18-4.97-3.25-11.32-0.19-16.36l18-29.67c5.23-8.61,17.63-8.87,23.21-0.48L639.9,387.41h83.08l-205.99-325
	c-8.9-14.04-29.46-13.84-38.09,0.37L281.93,387.41H365.77z"/>
<path d="M197.14,387.77l-34.97-80.67h-0.62v80.67H96.23v-232.5h65.33v149.22h0.62l46.23-73.76h73.61l-56.96,71.92l44.93,85.12
	H197.14z"/>
<path d="M940,387.77v-90.49c0-7.57-1.35-13.21-4.06-16.94c-2.71-3.73-7.13-5.6-13.27-5.6c-6.04,0-10.74,2.28-14.11,6.82
	c-3.37,4.55-5.06,10.87-5.06,18.94v87.26h-65.33v-88.95c0-16.05-5.47-24.08-16.41-24.08c-6.65,0-11.66,2.33-15.03,6.98
	c-3.38,4.65-5.06,11.32-5.06,20.01v86.04h-65.33V230.73h65.33v24.84h0.62c2.45-4.39,6.36-8.87,11.73-13.42
	c5.37-4.55,11.43-8.23,18.17-11.04c6.75-2.81,14.06-4.22,21.93-4.22c11.14,0,20.52,2.2,28.14,6.59c7.62,4.4,13.98,11.35,19.1,20.86
	c5.52-8.79,12.88-15.57,22.08-20.32c9.2-4.76,19.42-7.13,30.67-7.13c16.46,0,29.08,5.37,37.88,16.11
	c8.79,10.73,13.19,26.22,13.19,46.47v52.55c0,25.27-20.49,45.76-45.76,45.76H940z"/>
<path d="M1211.91,304.49c0,17.18-2.91,32.36-8.74,45.55c-5.83,13.19-14.06,23.41-24.69,30.67c-10.64,7.26-22.6,10.89-35.89,10.89
	c-18.4,0-32.36-6.69-41.87-20.09h-0.62V460h-24.87c-22.34,0-40.46-18.11-40.46-40.46V230.73h65.33v21.31h0.62
	c5.22-7.87,11.96-14.03,20.24-18.48c8.28-4.45,17.69-6.67,28.22-6.67c20.24,0,35.76,6.75,46.54,20.24
	C1206.52,260.63,1211.91,279.75,1211.91,304.49z M1145.66,306.48c0-9.92-1.92-17.69-5.75-23.31c-3.83-5.62-9.74-8.44-17.71-8.44
	c-6.95,0-12.57,2.97-16.87,8.9c-4.29,5.93-6.44,14.06-6.44,24.38v3.07c0,9.92,1.84,17.84,5.52,23.77c3.68,5.93,9.2,8.89,16.56,8.89
	c7.87,0,13.96-3.24,18.25-9.74C1143.51,327.52,1145.66,318.35,1145.66,306.48z"/>
<path d="M1236.45,387.77V230.73h65.33v157.04H1236.45z"/>
<path class="st0" d="M1236.45,190.67v-38.59H1270c17.55,0,31.78,14.23,31.78,31.78v33.75h-38.4
	C1248.5,217.6,1236.45,205.54,1236.45,190.67z"/>
</svg>
