<?xml version="1.0" encoding="utf-8"?>
<!-- Generator: Adobe Illustrator 26.0.3, SVG Export Plug-In . SVG Version: 6.00 Build 0)  -->
<svg version="1.1" id="Layer_1" xmlns="http://www.w3.org/2000/svg" xmlns:xlink="http://www.w3.org/1999/xlink" x="0px" y="0px"
	 viewBox="0 0 1825 512" style="enable-background:new 0 0 1825 512;" xml:space="preserve">
<style type="text/css">
	.st0{fill:#FBB03B;}
	.st1{fill:#009245;}
	.st2{fill:#4D4D4D;}
</style>
<path class="st0" d="M145,310l83.96,6.79l61.64,23.95l15.79,5.64L309,203c0,0-15-23-43-17s-79,43-80,45S145,310,145,310z"/>
<g>
	<path class="st1" d="M336.38,362.85c-11.81-6.45-22.98-12.33-33.86-18.71c-1.7-1-2.68-4.2-2.95-6.5
		c-2.9-25.1-4.77-50.36-8.66-75.31c-2.23-14.33-7.41-28.22-11.71-42.18c-1.33-4.34-4.11-8.23-6.54-12.93
		c-1.11,1.36-1.78,2.02-2.26,2.8c-18.1,28.93-29.8,60.48-38.04,93.41c-1.78,7.12,1.36,11.22,8.43,14.12
		c14.43,5.91,28.7,12.23,42.97,18.54c2.49,1.1,4.64,2.95,6.83,4.66c-54.74-23.48-112.9-27.14-172.1-30
		c4.64-6.97,8.8-13.51,13.24-19.86c26.23-37.53,55.42-72.44,91.23-101.33c22.06-17.79,45.85-32.55,73.81-39.33
		c5.63-1.37,11.39-2.25,16.96-4.22c-7.75,1.36-15.61,2.27-23.22,4.16c-33.25,8.25-61.36,25.98-86.97,48.08
		c-28.69,24.76-52.34,53.91-73.37,85.28c-1.01,1.51-2.07,3-3.45,4.98c0-0.99-0.16-1.5,0.02-1.8c26.54-42.72,57.4-81.69,98.21-111.87
		c22.61-16.72,47.33-28.95,75.24-34.15c29.58-5.51,57.21-0.1,83.3,14.41c27.79,15.46,50.24,37.1,70.34,61.33
		c30.25,36.47,54.26,76.85,74.27,119.69c0.4,0.85,0.66,1.77,1.03,2.79c-68.49-37.87-131.06-32.02-187.98,24.38
		c-2.17-60.61-4.31-120.39-6.45-180.16c-0.27,0-0.53,0.01-0.8,0.01C334.73,242.99,335.56,302.82,336.38,362.85z M154.63,308.44
		c19.57,0.98,38.34,1.87,57.1,2.86c11,0.58,13.58-1.25,16.49-12.03c8.82-32.61,20.77-63.89,39.85-92.05
		c1.54-2.28,1.42-3.65-0.6-5.43c-6.57-5.79-13.74-6.91-21.75-3.38c-14.34,6.31-25.71,16.49-36.11,27.84
		c-21.07,22.98-37.33,49.27-52.14,76.54C156.54,304.5,155.71,306.28,154.63,308.44z"/>
	<path class="st1" d="M346.92,371.23c21.75-22.48,47.86-36.5,78.45-41.64c35.6-5.98,69.73-0.27,102.73,14.61
		C467.7,353.21,407.31,362.22,346.92,371.23z"/>
	<path class="st1" d="M327.65,366.79c-65.19-29.37-132.76-48.78-204.86-49.2C196.06,313.1,264.89,327.26,327.65,366.79z"/>
</g>
<polygon class="st2" points="684.7,341.97 719.09,341.97 681.59,265.38 713.61,218.46 681.37,218.46 647.81,271.11 647.81,135 
	617,135 617,341.97 647.81,341.97 647.81,314.86 662.92,292.73 "/>
<path class="st2" d="M993.71,236.01c-2.62-6.38-6.41-11.24-11.36-14.58c-4.96-3.33-10.93-5-17.91-5c-6.74,0-12.89,2.04-18.44,6.13
	c-4.98,3.66-9.05,8.72-12.25,15.16c-0.28-0.81-0.58-1.6-0.9-2.37c-2.58-6.19-6.33-10.89-11.24-14.1
	c-4.92-3.21-10.87-4.82-17.85-4.82c-6.74,0-12.69,1.98-17.85,5.95c-3.88,2.98-7.17,6.97-9.88,11.96v-15.89h-31.17v123.51h31.17
	v-81.03c0-5,1.23-8.84,3.69-11.54c2.46-2.7,5.99-4.05,10.59-4.05c5,0,8.8,1.49,11.42,4.46c2.62,2.97,3.93,7.24,3.93,12.79v79.36
	h31.06v-79.84c0-5.39,1.29-9.54,3.87-12.43c2.58-2.89,6.25-4.34,11.01-4.34s8.43,1.49,11.01,4.46c2.58,2.97,3.87,7.24,3.87,12.79
	v79.36h31.17v-82.93C997.64,250.07,996.33,242.39,993.71,236.01z"/>
<path class="st2" d="M1111.57,236.54c-2.58-6.58-6.35-11.58-11.3-14.99c-4.96-3.41-10.93-5.12-17.91-5.12
	c-5.95,0-11.38,1.98-16.3,5.95c-3.69,2.97-6.86,6.84-9.52,11.59v-15.52h-30.94V394h30.94v-67.3c2.21,4.77,5.16,8.62,8.87,11.52
	c4.72,3.69,10.29,5.53,16.72,5.53c6.98,0,12.97-1.73,17.97-5.18c5-3.45,8.8-8.45,11.42-14.99c2.62-6.54,3.93-14.5,3.93-23.86v-39.27
	C1115.43,251.1,1114.14,243.13,1111.57,236.54z M1084.74,297.58c0,5.63-1.23,9.99-3.69,13.09c-2.46,3.09-5.95,4.64-10.47,4.64
	c-3.02,0-5.57-0.59-7.67-1.78c-2.1-1.19-3.69-2.93-4.76-5.24c-1.07-2.3-1.61-5.12-1.61-8.45v-39.5c0-3.25,0.54-6.05,1.61-8.39
	c1.07-2.34,2.66-4.1,4.76-5.29c2.1-1.19,4.66-1.78,7.67-1.78c4.52,0,8.01,1.57,10.47,4.7c2.46,3.13,3.69,7.48,3.69,13.03V297.58z"/>
<path class="st2" d="M1196.58,218.46l-19.73,73.38l-22.15-73.38h-29.27l39,119.61l-3.89,14.48c-1.03,3.97-2.62,6.7-4.76,8.21
	c-2.14,1.51-5.12,2.26-8.92,2.26h-8.57v30.46h8.33c6.58,0,12.2-0.77,16.84-2.32s8.47-3.99,11.48-7.32c3.01-3.33,5.31-7.66,6.9-12.97
	l44.03-152.42H1196.58z"/>
<path class="st2" d="M1419.62,217.68c-2.1-0.83-4.42-1.25-6.96-1.25c-6.58,0-12.63,2.08-18.15,6.25
	c-4.28,3.23-7.95,7.45-11.01,12.62v-16.84h-32.13v123.51h32.13v-70.44c0-7.46,1.88-13.29,5.65-17.49c3.77-4.2,9.02-6.31,15.77-6.31
	c2.22,0,4.24,0.2,6.07,0.6c1.82,0.4,3.37,1.03,4.64,1.9l9.4-28.91C1423.53,219.73,1421.72,218.52,1419.62,217.68z"/>
<path class="st2" d="M1439.32,218.46h31.06v123.51h-31.06V218.46z"/>
<path class="st2" d="M1645.04,236.01c-2.62-6.38-6.41-11.24-11.36-14.58c-4.96-3.33-10.93-5-17.91-5c-6.74,0-12.89,2.04-18.44,6.13
	c-4.98,3.66-9.05,8.72-12.25,15.16c-0.28-0.81-0.58-1.6-0.9-2.37c-2.58-6.19-6.33-10.89-11.24-14.1
	c-4.92-3.21-10.87-4.82-17.85-4.82c-6.74,0-12.69,1.98-17.85,5.95c-3.88,2.98-7.17,6.97-9.88,11.96v-15.89h-31.17v123.51h31.17
	v-81.03c0-5,1.23-8.84,3.69-11.54c2.46-2.7,5.99-4.05,10.59-4.05c5,0,8.8,1.49,11.42,4.46c2.62,2.97,3.93,7.24,3.93,12.79v79.36
	h31.06v-79.84c0-5.39,1.29-9.54,3.87-12.43c2.58-2.89,6.25-4.34,11.01-4.34s8.43,1.49,11.01,4.46c2.58,2.97,3.87,7.24,3.87,12.79
	V394h31.17V259.03C1648.97,250.07,1647.66,242.39,1645.04,236.01z"/>
<path class="st2" d="M1330.52,294.23v-21.77c0-11.42-1.77-21.16-5.29-29.21c-3.53-8.05-8.67-14.18-15.41-18.38
	c-6.74-4.2-14.87-6.31-24.39-6.31c-9.76,0-18.09,1.92-24.99,5.77c-6.9,3.85-12.18,9.42-15.83,16.72c-3.65,7.3-5.47,16.1-5.47,26.42
	v31.65c0,9.76,1.9,18.13,5.71,25.11c3.81,6.98,9.26,12.32,16.36,16c7.1,3.69,15.69,5.53,25.76,5.53c11.34,0,18.37-3.04,25.03-8.75
	c7-6,15.62-21,18-31l-26.97-0.23c-1.35,4.13-3.43,7.26-6.25,9.4c-2.82,2.14-6.37,3.21-10.65,3.21c-5.63,0-10-1.61-13.09-4.82
	c-3.09-3.21-4.64-7.83-4.64-13.86v-5.47v-22.01v-6.07c0-6.27,1.51-11.13,4.52-14.58c3.01-3.45,7.18-5.18,12.49-5.18
	c4.68,0,8.51,1.53,11.48,4.58c2.97,3.05,4.46,7.2,4.46,12.43v8.8H1280v22.01H1330.52z"/>
<path class="st2" d="M734.13,268.08v21.77c0,11.42,1.77,21.16,5.29,29.21c3.53,8.05,8.67,14.18,15.41,18.38
	c6.74,4.2,14.87,6.31,24.39,6.31c9.76,0,18.09-1.92,24.99-5.77c6.9-3.85,12.18-9.42,15.83-16.72c3.65-7.3,5.47-16.1,5.47-26.42
	V263.2c0-9.76-1.9-18.13-5.71-25.11c-3.81-6.98-9.26-12.32-16.36-16c-7.1-3.69-15.69-5.53-25.76-5.53
	c-11.34,0-18.37,3.04-25.03,8.75c-7,6-15.62,21-18,31l26.97,0.23c1.35-4.13,3.43-7.26,6.25-9.4c2.82-2.14,6.37-3.21,10.65-3.21
	c5.63,0,10,1.61,13.09,4.82c3.09,3.21,4.64,7.83,4.64,13.86v5.47v22.01v6.07c0,6.27-1.51,11.13-4.52,14.58
	c-3.01,3.45-7.18,5.18-12.49,5.18c-4.68,0-8.51-1.53-11.48-4.58c-2.97-3.05-4.46-7.2-4.46-12.43v-8.8h21.37v-22.01H734.13z"/>
<path class="st2" d="M1456,136c-14.79,0-26.77,11.99-26.77,26.77c0,14.79,21.59,49.23,26.77,49.23s26.77-34.44,26.77-49.23
	C1482.77,147.99,1470.79,136,1456,136z M1456,177.45c-9.06,0-16.41-7.35-16.41-16.41s7.35-16.41,16.41-16.41s16.41,7.35,16.41,16.41
	S1465.06,177.45,1456,177.45z"/>
</svg>
